<svg width="18" height="24" viewBox="0 0 18 24" fill="none" xmlns="http://www.w3.org/2000/svg">
<path d="M8.29281 0C8.78457 0 9.28146 0 9.77322 0C10.0754 0.0501044 10.3726 0.0951983 10.6748 0.150313C14.1837 0.766597 17.0728 3.51232 17.7951 6.92944C17.8719 7.30021 17.9334 7.67599 18 8.05177C18 8.53278 18 9.01879 18 9.49979C17.9795 9.64008 17.9539 9.77536 17.9334 9.91566C17.6619 11.8497 16.8321 13.5182 15.4592 14.9311C13.0516 17.4063 11.1717 20.2171 9.82957 23.3737C9.67077 23.7445 9.44026 24 9.00484 24C8.56943 24 8.3594 23.7244 8.18524 23.3687C7.65762 22.3115 7.13512 21.2392 6.54091 20.2171C5.39346 18.233 3.95915 16.4443 2.39678 14.7557C0.36826 12.5612 -0.420609 9.96576 0.214584 7.07975C1.00345 3.49228 3.30347 1.21754 6.91997 0.250522C7.36563 0.130271 7.83178 0.080167 8.29281 0Z" fill="#F04438"/>
<path d="M15 9.38545C14.9666 9.61925 14.9332 9.88645 14.8998 10.1203C14.7328 11.1222 14.332 12.024 13.5972 12.7254C12.9626 13.3266 12.161 13.694 11.2926 13.694C10.0234 13.694 8.92122 12.859 8.62062 11.5898C8.58722 11.4896 8.55382 11.4228 8.42023 11.4228C7.35143 11.2224 6.58323 10.3541 6.54983 9.25185C6.51643 8.71746 6.54983 8.21646 6.54983 7.68206C6.54983 7.54846 6.58323 7.51506 6.71683 7.51506C6.91723 7.51506 7.15103 7.51506 7.35143 7.51506C7.35143 7.48166 7.35143 7.41486 7.35143 7.38146C7.35143 6.98066 7.35143 6.54646 7.35143 6.14567C7.35143 5.84507 7.51843 5.64467 7.78563 5.57787C8.05283 5.54447 8.32003 5.71147 8.35343 5.97867C8.35343 6.04547 8.38683 6.11227 8.38683 6.17907C8.38683 6.61326 8.38683 7.04746 8.38683 7.51506C8.78762 7.51506 9.15502 7.51506 9.55582 7.51506C9.55582 7.31466 9.55582 7.08086 9.55582 6.88046C9.55582 6.61326 9.55582 6.37947 9.55582 6.11227C9.55582 5.84507 9.72282 5.67807 9.92322 5.61127C10.1236 5.54447 10.3908 5.61127 10.491 5.81167C10.5578 5.91187 10.5912 6.04547 10.5912 6.17907C10.5912 6.61326 10.5912 7.04746 10.5912 7.48166C10.5912 7.48166 10.5912 7.48166 10.5912 7.51506C10.7582 7.51506 10.9252 7.51506 11.0588 7.51506C11.3928 7.51506 11.3928 7.51506 11.3928 7.84906C11.3928 8.24986 11.3928 8.68406 11.3928 9.08486C11.3928 10.2205 10.7248 11.0888 9.62262 11.3894C9.58922 11.3894 9.58922 11.3894 9.55582 11.4228C9.75622 12.0574 10.157 12.4582 10.7916 12.5918C11.5932 12.7588 12.2612 12.4916 12.829 11.9238C13.3634 11.3894 13.664 10.7214 13.7976 9.98665C13.998 8.81766 13.8644 7.71546 13.2966 6.68006C12.4616 5.17707 11.2258 4.30867 9.52242 4.07487C8.28663 3.90787 7.15103 4.17507 6.14903 4.87647C4.91324 5.74487 4.14504 6.91386 3.97804 8.41686C3.91124 10.1203 4.47904 11.5564 5.71484 12.692C5.94863 12.9258 6.24923 13.0928 6.51643 13.2598C6.81703 13.4602 6.88383 13.7942 6.65003 14.0614C6.48303 14.2618 6.21583 14.2952 5.98203 14.1616C5.18044 13.694 4.54584 13.0928 4.01144 12.3246C3.51044 11.5564 3.17645 10.7214 3.04285 9.78625C2.84245 7.94926 3.34344 6.31267 4.57924 4.94327C5.44764 3.97467 6.54983 3.34008 7.81903 3.10628C10.1904 2.70548 12.161 3.44028 13.6974 5.27727C14.4322 6.17907 14.8664 7.24786 14.9666 8.41686C14.9666 8.48366 15 8.58386 15 8.65066C15 8.88446 15 9.11825 15 9.38545Z" fill="white"/>
</svg>
