<svg width="128" height="40" viewBox="0 0 128 40" fill="none" xmlns="http://www.w3.org/2000/svg">
<rect x="0.15" y="0.65" width="38.7" height="38.7" rx="7.85" fill="white"/>
<g clip-path="url(#clip0_170417_23624)">
<path d="M18.2812 27.3125C21.6467 27.3125 24.375 24.5842 24.375 21.2188C24.375 17.8533 21.6467 15.125 18.2812 15.125C14.9158 15.125 12.1875 17.8533 12.1875 21.2188C12.1875 24.5842 14.9158 27.3125 18.2812 27.3125Z" fill="url(#paint0_linear_170417_23624)"/>
<path d="M26.9412 32.2947C25.8011 32.2947 24.5142 32.0347 23.1074 31.5079C20.1269 30.3878 16.9064 28.1941 14.0394 25.327C11.1723 22.4599 8.97195 19.2328 7.85845 16.259C6.65161 13.0385 6.83164 10.4182 8.37186 8.88461C9.90542 7.35105 12.5258 7.16435 15.7463 8.3712C18.7267 9.49136 21.9472 11.685 24.8143 14.5521C27.6814 17.4192 29.8817 20.6463 30.9952 23.6201C32.202 26.8406 32.022 29.461 30.4818 30.9945C29.615 31.8613 28.4081 32.2947 26.9412 32.2947ZM11.9057 9.44469C10.9456 9.44469 10.1788 9.69806 9.67872 10.1981C8.70524 11.1716 8.67191 13.1386 9.59871 15.5989C10.6255 18.3327 12.6658 21.3198 15.3529 24.0068C18.0399 26.6939 21.027 28.7342 23.7608 29.761C26.2211 30.6811 28.1881 30.6545 29.1616 29.681C30.135 28.7075 30.1684 26.7406 29.2416 24.2802C28.2148 21.5465 26.1745 18.5594 23.4874 15.8723C20.8004 13.1852 17.8132 11.1449 15.0795 10.1181C13.8927 9.66472 12.8125 9.44469 11.9057 9.44469Z" fill="url(#paint1_linear_170417_23624)"/>
<path d="M27.9144 37.0619C26.5809 37.0619 25.134 36.8485 23.6005 36.4218C19.2998 35.2149 14.8058 32.4212 10.9386 28.5606C7.07137 24.7001 4.2843 20.1927 3.07745 15.8988C1.81727 11.4114 2.42402 7.64423 4.78437 5.28388C7.14472 2.92354 10.9119 2.31678 15.3993 3.57696C19.6999 4.78381 24.1939 7.57755 28.0611 11.4381C31.9283 15.2987 34.7154 19.806 35.9223 24.1C37.1824 28.5873 36.5757 32.3545 34.2153 34.7149C32.6618 36.2684 30.4948 37.0619 27.9144 37.0619ZM11.092 4.80381C9.01166 4.80381 7.29807 5.41057 6.10456 6.60407C4.24429 8.46435 3.81089 11.5848 4.87772 15.392C5.99788 19.3859 8.62493 23.5932 12.2655 27.2338C15.906 30.8743 20.1133 33.5014 24.1072 34.6215C27.9144 35.6883 31.0349 35.2549 32.8952 33.3947C34.7554 31.5344 35.1888 28.4139 34.122 24.6067C33.0018 20.6128 30.3748 16.4055 26.7343 12.765C23.0937 9.12444 18.8864 6.49739 14.8925 5.37723C13.5256 4.9905 12.2521 4.80381 11.092 4.80381Z" fill="url(#paint2_linear_170417_23624)"/>
<path d="M7.3125 34.625C8.65869 34.625 9.75 33.5337 9.75 32.1875C9.75 30.8413 8.65869 29.75 7.3125 29.75C5.9663 29.75 4.875 30.8413 4.875 32.1875C4.875 33.5337 5.9663 34.625 7.3125 34.625Z" fill="url(#paint3_linear_170417_23624)"/>
<path d="M25.5285 28.4008C26.1656 28.4008 26.682 27.8843 26.682 27.2473C26.682 26.6102 26.1656 26.0938 25.5285 26.0938C24.8914 26.0938 24.375 26.6102 24.375 27.2473C24.375 27.8843 24.8914 28.4008 25.5285 28.4008Z" fill="url(#paint4_linear_170417_23624)"/>
<path d="M13.341 14.9945C13.9781 14.9945 14.4945 14.4781 14.4945 13.841C14.4945 13.2039 13.9781 12.6875 13.341 12.6875C12.7039 12.6875 12.1875 13.2039 12.1875 13.841C12.1875 14.4781 12.7039 14.9945 13.341 14.9945Z" fill="url(#paint5_linear_170417_23624)"/>
<path d="M28.28 9.61768C29.6262 9.61768 30.7175 8.52637 30.7175 7.18018C30.7175 5.83398 29.6262 4.74268 28.28 4.74268C26.9338 4.74268 25.8425 5.83398 25.8425 7.18018C25.8425 8.52637 26.9338 9.61768 28.28 9.61768Z" fill="url(#paint6_linear_170417_23624)"/>
<path d="M33.1021 14.5479C33.7751 14.5479 34.3208 14.0022 34.3208 13.3291C34.3208 12.656 33.7751 12.1104 33.1021 12.1104C32.429 12.1104 31.8833 12.656 31.8833 13.3291C31.8833 14.0022 32.429 14.5479 33.1021 14.5479Z" fill="url(#paint7_linear_170417_23624)"/>
</g>
<rect x="0.15" y="0.65" width="38.7" height="38.7" rx="7.85" stroke="#E8F7FF" stroke-width="0.3"/>
<path d="M54.112 10.8161L52.504 7.45607H52.432V18.7361H49V1.98407H52.984L57.568 9.90407L59.176 13.2641H59.248V1.98407H62.68V18.7361H58.696L54.112 10.8161Z" fill="#1890FF"/>
<path d="M71.4312 19.0241C70.4712 19.0241 69.6152 18.8721 68.8632 18.5681C68.1112 18.2481 67.4712 17.8081 66.9432 17.2481C66.4312 16.6721 66.0392 15.9761 65.7672 15.1601C65.5112 14.3441 65.3832 13.4321 65.3832 12.4241C65.3832 11.4321 65.5112 10.5361 65.7672 9.73607C66.0232 8.92007 66.3992 8.22407 66.8952 7.64807C67.4072 7.07207 68.0312 6.63207 68.7672 6.32807C69.5032 6.00807 70.3432 5.84807 71.2872 5.84807C72.3272 5.84807 73.2152 6.02407 73.9512 6.37607C74.7032 6.72807 75.3112 7.20007 75.7752 7.79207C76.2552 8.38407 76.5992 9.07207 76.8072 9.85607C77.0312 10.6241 77.1432 11.4321 77.1432 12.2801V13.3361H69.0552V13.5281C69.0552 14.3601 69.2792 15.0241 69.7272 15.5201C70.1752 16.0001 70.8792 16.2401 71.8392 16.2401C72.5752 16.2401 73.1752 16.0961 73.6392 15.8081C74.1032 15.5041 74.5352 15.1441 74.9352 14.7281L76.7112 16.9361C76.1512 17.5921 75.4152 18.1041 74.5032 18.4721C73.6072 18.8401 72.5832 19.0241 71.4312 19.0241ZM71.3592 8.46407C70.6392 8.46407 70.0712 8.70407 69.6552 9.18407C69.2552 9.64807 69.0552 10.2721 69.0552 11.0561V11.2481H73.4712V11.0321C73.4712 10.2641 73.2952 9.64807 72.9432 9.18407C72.6072 8.70407 72.0792 8.46407 71.3592 8.46407Z" fill="#1890FF"/>
<path d="M79.6517 0.976074H83.2038V8.24807H83.3237C83.4997 7.54407 83.8997 6.96807 84.5238 6.52007C85.1637 6.07207 85.8918 5.84807 86.7078 5.84807C88.3078 5.84807 89.5158 6.40807 90.3317 7.52807C91.1478 8.64807 91.5558 10.2801 91.5558 12.4241C91.5558 14.5681 91.1478 16.2081 90.3317 17.3441C89.5158 18.4641 88.3078 19.0241 86.7078 19.0241C86.2918 19.0241 85.8997 18.9601 85.5317 18.8321C85.1637 18.7201 84.8278 18.5601 84.5238 18.3521C84.2357 18.1281 83.9878 17.8721 83.7798 17.5841C83.5718 17.2801 83.4198 16.9601 83.3237 16.6241H83.2038V18.7361H79.6517V0.976074ZM85.5317 16.1441C86.2038 16.1441 86.7558 15.9121 87.1878 15.4481C87.6357 14.9681 87.8597 14.3281 87.8597 13.5281V11.3441C87.8597 10.5441 87.6357 9.91208 87.1878 9.44807C86.7558 8.96807 86.2038 8.72807 85.5317 8.72807C84.8597 8.72807 84.2998 8.89607 83.8517 9.23207C83.4198 9.55207 83.2038 10.0001 83.2038 10.5761V14.2961C83.2038 14.8721 83.4198 15.3281 83.8517 15.6641C84.2998 15.9841 84.8597 16.1441 85.5317 16.1441Z" fill="#1890FF"/>
<path d="M101.693 16.6241H101.573C101.461 16.9441 101.309 17.2481 101.117 17.5361C100.941 17.8241 100.709 18.0801 100.421 18.3041C100.133 18.5281 99.7893 18.7041 99.3893 18.8321C99.0053 18.9601 98.5573 19.0241 98.0453 19.0241C96.7493 19.0241 95.7653 18.6001 95.0933 17.7521C94.4373 16.8881 94.1093 15.6561 94.1093 14.0561V6.13607H97.6613V13.7441C97.6613 14.5121 97.7973 15.1041 98.0693 15.5201C98.3413 15.9361 98.8053 16.1441 99.4613 16.1441C99.7333 16.1441 100.005 16.1041 100.277 16.0241C100.549 15.9441 100.789 15.8321 100.997 15.6881C101.205 15.5281 101.373 15.3361 101.501 15.1121C101.629 14.8881 101.693 14.6241 101.693 14.3201V6.13607H105.245V18.7361H101.693V16.6241Z" fill="#1890FF"/>
<path d="M112.078 18.7361C110.862 18.7361 109.966 18.4401 109.39 17.8481C108.83 17.2561 108.55 16.4001 108.55 15.2801V0.976074H112.102V15.9761H113.686V18.7361H112.078Z" fill="#1890FF"/>
<path d="M125.128 18.7361C124.488 18.7361 123.952 18.5361 123.52 18.1361C123.104 17.7361 122.84 17.2001 122.728 16.5281H122.584C122.392 17.3441 121.968 17.9681 121.312 18.4001C120.656 18.8161 119.848 19.0241 118.888 19.0241C117.624 19.0241 116.656 18.6881 115.984 18.0161C115.312 17.3441 114.976 16.4561 114.976 15.3521C114.976 14.0241 115.456 13.0401 116.416 12.4001C117.392 11.7441 118.712 11.4161 120.376 11.4161H122.368V10.6241C122.368 10.0161 122.208 9.53607 121.888 9.18407C121.568 8.81607 121.032 8.63207 120.28 8.63207C119.576 8.63207 119.016 8.78407 118.6 9.08807C118.184 9.39207 117.84 9.73607 117.568 10.1201L115.456 8.24807C115.968 7.49607 116.608 6.91207 117.376 6.49607C118.16 6.06407 119.216 5.84807 120.544 5.84807C122.336 5.84807 123.68 6.24007 124.576 7.02407C125.472 7.80807 125.92 8.95207 125.92 10.4561V15.9761H127.096V18.7361H125.128ZM120.208 16.5521C120.8 16.5521 121.304 16.4241 121.72 16.1681C122.152 15.9121 122.368 15.4961 122.368 14.9201V13.4321H120.64C119.248 13.4321 118.552 13.9041 118.552 14.8481V15.2081C118.552 15.6721 118.696 16.0161 118.984 16.2401C119.272 16.4481 119.68 16.5521 120.208 16.5521Z" fill="#1890FF"/>
<rect x="49" y="23.0239" width="42" height="16" rx="8" fill="#F9F0FF"/>
<path d="M61.5172 36.1679C60.4532 36.1679 59.6252 35.8079 59.0332 35.0879C58.4412 34.3599 58.1452 33.2919 58.1452 31.8839C58.1452 30.4759 58.4412 29.3959 59.0332 28.6439C59.6252 27.8839 60.4532 27.5039 61.5172 27.5039C62.2212 27.5039 62.8092 27.6639 63.2812 27.9839C63.7612 28.3039 64.1332 28.7559 64.3972 29.3399L63.5812 29.8319C63.4132 29.3999 63.1572 29.0559 62.8132 28.7999C62.4692 28.5359 62.0372 28.4039 61.5172 28.4039C61.1572 28.4039 60.8332 28.4719 60.5452 28.6079C60.2652 28.7439 60.0252 28.9399 59.8252 29.1959C59.6332 29.4439 59.4852 29.7439 59.3812 30.0959C59.2772 30.4399 59.2252 30.8279 59.2252 31.2599V32.5079C59.2252 33.3719 59.4252 34.0479 59.8252 34.5359C60.2252 35.0239 60.7892 35.2679 61.5172 35.2679C62.0532 35.2679 62.5012 35.1319 62.8612 34.8599C63.2212 34.5799 63.4852 34.2119 63.6532 33.7559L64.4572 34.2599C64.1932 34.8519 63.8132 35.3199 63.3172 35.6639C62.8212 35.9999 62.2212 36.1679 61.5172 36.1679ZM68.2623 36.1679C67.8463 36.1679 67.4663 36.0919 67.1223 35.9399C66.7783 35.7879 66.4823 35.5719 66.2343 35.2919C65.9943 35.0039 65.8063 34.6639 65.6703 34.2719C65.5343 33.8719 65.4663 33.4239 65.4663 32.9279C65.4663 32.4399 65.5343 31.9959 65.6703 31.5959C65.8063 31.1959 65.9943 30.8559 66.2343 30.5759C66.4823 30.2879 66.7783 30.0679 67.1223 29.9159C67.4663 29.7639 67.8463 29.6879 68.2623 29.6879C68.6783 29.6879 69.0543 29.7639 69.3903 29.9159C69.7343 30.0679 70.0303 30.2879 70.2783 30.5759C70.5263 30.8559 70.7183 31.1959 70.8543 31.5959C70.9903 31.9959 71.0583 32.4399 71.0583 32.9279C71.0583 33.4239 70.9903 33.8719 70.8543 34.2719C70.7183 34.6639 70.5263 35.0039 70.2783 35.2919C70.0303 35.5719 69.7343 35.7879 69.3903 35.9399C69.0543 36.0919 68.6783 36.1679 68.2623 36.1679ZM68.2623 35.3159C68.7823 35.3159 69.2063 35.1559 69.5343 34.8359C69.8623 34.5159 70.0263 34.0279 70.0263 33.3719V32.4839C70.0263 31.8279 69.8623 31.3399 69.5343 31.0199C69.2063 30.6999 68.7823 30.5399 68.2623 30.5399C67.7423 30.5399 67.3183 30.6999 66.9903 31.0199C66.6623 31.3399 66.4983 31.8279 66.4983 32.4839V33.3719C66.4983 34.0279 66.6623 34.5159 66.9903 34.8359C67.3183 35.1559 67.7423 35.3159 68.2623 35.3159ZM72.6372 36.0239V29.8319H73.5972V30.9719H73.6572C73.7692 30.6759 73.9692 30.4119 74.2572 30.1799C74.5452 29.9479 74.9412 29.8319 75.4452 29.8319H75.8172V30.7919H75.2532C74.7332 30.7919 74.3252 30.8919 74.0292 31.0919C73.7412 31.2839 73.5972 31.5279 73.5972 31.8239V36.0239H72.6372ZM79.3128 36.1679C78.8888 36.1679 78.5048 36.0919 78.1608 35.9399C77.8248 35.7879 77.5328 35.5719 77.2848 35.2919C77.0448 35.0039 76.8568 34.6639 76.7208 34.2719C76.5928 33.8719 76.5288 33.4239 76.5288 32.9279C76.5288 32.4399 76.5928 31.9959 76.7208 31.5959C76.8568 31.1959 77.0448 30.8559 77.2848 30.5759C77.5328 30.2879 77.8248 30.0679 78.1608 29.9159C78.5048 29.7639 78.8888 29.6879 79.3128 29.6879C79.7288 29.6879 80.1008 29.7639 80.4288 29.9159C80.7568 30.0679 81.0368 30.2799 81.2688 30.5519C81.5008 30.8159 81.6768 31.1319 81.7968 31.4999C81.9248 31.8679 81.9888 32.2719 81.9888 32.7119V33.1679H77.5368V33.4559C77.5368 33.7199 77.5768 33.9679 77.6568 34.1999C77.7448 34.4239 77.8648 34.6199 78.0168 34.7879C78.1768 34.9559 78.3688 35.0879 78.5928 35.1839C78.8248 35.2799 79.0848 35.3279 79.3728 35.3279C79.7648 35.3279 80.1048 35.2359 80.3928 35.0519C80.6888 34.8679 80.9168 34.6039 81.0768 34.2599L81.7608 34.7519C81.5608 35.1759 81.2488 35.5199 80.8248 35.7839C80.4008 36.0399 79.8968 36.1679 79.3128 36.1679ZM79.3128 30.4919C79.0488 30.4919 78.8088 30.5399 78.5928 30.6359C78.3768 30.7239 78.1888 30.8519 78.0288 31.0199C77.8768 31.1879 77.7568 31.3879 77.6688 31.6199C77.5808 31.8439 77.5368 32.0919 77.5368 32.3639V32.4479H80.9568V32.3159C80.9568 31.7639 80.8048 31.3239 80.5008 30.9959C80.2048 30.6599 79.8088 30.4919 79.3128 30.4919Z" fill="#722ED1"/>
<defs>
<linearGradient id="paint0_linear_170417_23624" x1="22.2571" y1="17.0049" x2="13.8948" y2="25.8675" gradientUnits="userSpaceOnUse">
<stop stop-color="#48C2FF"/>
<stop offset="1" stop-color="#5A3BAC"/>
</linearGradient>
<linearGradient id="paint1_linear_170417_23624" x1="14.0712" y1="25.4285" x2="24.1535" y2="13.795" gradientUnits="userSpaceOnUse">
<stop stop-color="#5E3CB2"/>
<stop offset="1" stop-color="#AADDFF"/>
</linearGradient>
<linearGradient id="paint2_linear_170417_23624" x1="10.9692" y1="27.7557" x2="28.0317" y2="11.4688" gradientUnits="userSpaceOnUse">
<stop stop-color="#5E3CB2"/>
<stop offset="1" stop-color="#45BBFF" stop-opacity="0"/>
</linearGradient>
<linearGradient id="paint3_linear_170417_23624" x1="4.86922" y1="32.1827" x2="9.75327" y2="32.1827" gradientUnits="userSpaceOnUse">
<stop stop-color="#40AAFD"/>
<stop offset="1" stop-color="#513AF9"/>
</linearGradient>
<linearGradient id="paint4_linear_170417_23624" x1="24.372" y1="27.2486" x2="26.6833" y2="27.2486" gradientUnits="userSpaceOnUse">
<stop stop-color="#48C2FF"/>
<stop offset="1" stop-color="#3998FC"/>
</linearGradient>
<linearGradient id="paint5_linear_170417_23624" x1="12.1845" y1="13.8378" x2="14.4958" y2="13.8378" gradientUnits="userSpaceOnUse">
<stop stop-color="#48C2FF"/>
<stop offset="1" stop-color="#3998FC"/>
</linearGradient>
<linearGradient id="paint6_linear_170417_23624" x1="25.8328" y1="7.17827" x2="30.7168" y2="7.17827" gradientUnits="userSpaceOnUse">
<stop stop-color="#48C2FF"/>
<stop offset="1" stop-color="#3998FC"/>
</linearGradient>
<linearGradient id="paint7_linear_170417_23624" x1="31.8835" y1="13.3304" x2="34.3255" y2="13.3304" gradientUnits="userSpaceOnUse">
<stop stop-color="#48C2FF"/>
<stop offset="1" stop-color="#3998FC"/>
</linearGradient>
<clipPath id="clip0_170417_23624">
<rect width="34.125" height="34.125" fill="white" transform="translate(2.4375 2.9375)"/>
</clipPath>
</defs>
</svg>
