<svg width="36" height="53" viewBox="0 0 36 53" fill="none" xmlns="http://www.w3.org/2000/svg">
<path d="M16.8603 0.710526C17.8242 0.710526 18.7981 0.710526 19.762 0.710526C20.3544 0.818645 20.9368 0.915953 21.5292 1.03489C28.407 2.36476 34.0699 8.28974 35.4856 15.6635C35.6362 16.4636 35.7567 17.2745 35.8872 18.0854C35.8872 19.1234 35.8872 20.1721 35.8872 21.2101C35.8471 21.5128 35.7969 21.8047 35.7567 22.1075C35.2245 26.2809 33.598 29.8813 30.9071 32.9303C26.188 38.2714 22.5031 44.3369 19.8725 51.1485C19.5612 51.9486 19.1094 52.5 18.256 52.5C17.4025 52.5 16.9908 51.9053 16.6495 51.1377C15.6153 48.8564 14.5911 46.5426 13.4264 44.3369C11.1773 40.0554 8.36598 36.1955 5.3036 32.5519C1.32753 27.8162 -0.218717 22.2156 1.02632 15.9879C2.57257 8.24649 7.08079 3.33784 14.1694 1.25113C15.043 0.991637 15.9567 0.883517 16.8603 0.710526Z" fill="#FF4D4F"/>
<g clip-path="url(#clip0_648_66960)">
<path fill-rule="evenodd" clip-rule="evenodd" d="M17.9249 13.3862C15.2877 13.727 13.2835 15.0901 11.8595 17.4754C12.2287 17.6458 12.5451 17.8162 12.8616 17.9866C13.1781 18.157 13.389 18.4977 13.2835 18.8385C13.1781 19.3497 12.7034 19.6336 12.2814 19.4064C12.0177 19.2929 11.7013 19.1225 11.4376 18.9521C11.405 18.917 11.3724 18.9036 11.3273 18.8851C11.2995 18.8736 11.2669 18.8602 11.2266 18.8385C10.33 21.3943 10.4882 23.7796 11.6485 26.1082C11.9122 25.9378 12.176 25.8242 12.4924 25.7106C12.5979 25.6538 12.7561 25.597 12.8616 25.597C13.1781 25.5402 13.4945 25.7674 13.6 26.1082C13.7055 26.449 13.6 26.8465 13.2835 27.0169C12.7034 27.3577 12.176 27.6416 11.5958 27.9256C11.2793 28.096 10.9101 27.9256 10.7519 27.5848C10.0135 26.3922 9.53884 25.1427 9.32787 23.7228C8.484 18.6113 11.2793 13.727 15.8679 12.1936C18.1358 11.4552 20.2983 11.6256 22.4607 12.6479C22.8826 12.8183 23.0936 13.2727 22.8826 13.6702C22.7244 14.0678 22.3025 14.2382 21.8805 14.0678C21.3004 13.8406 20.6675 13.6134 19.9818 13.443C19.7708 13.3862 19.6126 13.3862 19.4016 13.3862V14.5789C19.4016 15.0901 19.0324 15.4308 18.5578 15.374C18.1886 15.3173 17.9249 14.9765 17.9249 14.5789V13.5566V13.3862ZM28.1041 22.4733L28.0898 22.6129C28.0414 23.0864 27.9891 23.5985 27.8931 24.0636C27.6822 25.3131 27.1547 26.5057 26.5218 27.5848C26.3109 27.9256 25.9417 28.0392 25.5725 27.8688C25.3088 27.7268 25.045 27.599 24.7813 27.4713C24.5176 27.3435 24.2539 27.2157 23.9902 27.0737C23.621 26.8465 23.4628 26.3922 23.6737 26.0514C23.832 25.6538 24.2539 25.4835 24.6231 25.6538C24.7022 25.6822 24.7813 25.7248 24.8604 25.7674C24.9396 25.81 25.0187 25.8526 25.0978 25.881C25.2 25.9177 25.3021 25.978 25.4185 26.0468L25.4185 26.0468L25.4186 26.0468C25.4824 26.0845 25.5505 26.1248 25.6252 26.165C25.6868 25.9993 25.7483 25.8385 25.8085 25.681L25.8086 25.6809C25.9548 25.2988 26.0933 24.9367 26.2054 24.5747C26.7855 22.5301 26.7328 20.5423 25.9417 18.5545C25.8362 18.3274 25.7834 18.1002 25.8889 17.8162C25.9944 17.5322 26.2581 17.3051 26.5746 17.3051C26.891 17.3051 27.1547 17.4754 27.2602 17.8162C27.4712 18.3842 27.6822 19.0089 27.7876 19.5768C27.8404 19.8324 27.8799 20.1022 27.9195 20.372C27.9591 20.6417 27.9986 20.9115 28.0514 21.1671C28.0514 21.2239 28.0514 21.2807 28.1041 21.3375V22.4733ZM16.6063 22.8709C17.0283 23.8364 17.7139 24.2908 18.6105 24.3476C18.716 24.3476 18.8215 24.3476 18.8743 24.4044H18.9797C19.7181 24.234 20.1928 23.7796 20.562 23.2117C21.3531 21.9906 22.1443 20.7837 22.9354 19.5769C23.7265 18.37 24.5177 17.1631 25.3088 15.942C25.4143 15.8284 25.467 15.658 25.467 15.4876C25.467 15.1469 25.3615 14.9197 25.0978 14.7493C24.8341 14.5221 24.5177 14.5789 24.254 14.8061C23.2782 15.5444 22.2893 16.2828 21.3004 17.0211C20.3115 17.7594 19.3226 18.4977 18.3468 19.2361C17.8722 19.5768 17.3975 19.9176 17.0283 20.3152C16.3954 20.9399 16.2371 22.019 16.6063 22.8709Z" fill="white"/>
</g>
<defs>
<clipPath id="clip0_648_66960">
<rect width="20.0393" height="21.5789" fill="white" transform="translate(8.62146 9.3421)"/>
</clipPath>
</defs>
</svg>
