<svg width="18" height="24" viewBox="0 0 18 24" fill="none" xmlns="http://www.w3.org/2000/svg">
<path d="M8.29281 0C8.78457 0 9.28146 0 9.77322 0C10.0754 0.0501044 10.3726 0.0951983 10.6748 0.150313C14.1837 0.766597 17.0728 3.51232 17.7951 6.92944C17.8719 7.30021 17.9334 7.67599 18 8.05177C18 8.53278 18 9.01879 18 9.49979C17.9795 9.64008 17.9539 9.77536 17.9334 9.91566C17.6619 11.8497 16.8321 13.5182 15.4592 14.9311C13.0516 17.4063 11.1717 20.2171 9.82957 23.3737C9.67077 23.7445 9.44026 24 9.00484 24C8.56943 24 8.3594 23.7244 8.18524 23.3687C7.65762 22.3115 7.13512 21.2392 6.54091 20.2171C5.39346 18.233 3.95915 16.4443 2.39678 14.7557C0.36826 12.5612 -0.420609 9.96576 0.214584 7.07975C1.00345 3.49228 3.30347 1.21754 6.91997 0.250522C7.36563 0.130271 7.83178 0.080167 8.29281 0Z" fill="#FDB022"/>
<g clip-path="url(#clip0_1618_1270)">
<path fill-rule="evenodd" clip-rule="evenodd" d="M12.3286 4.83571C12.3286 4.37143 12.7071 4 13.1643 4C13.6286 4 14 4.37143 14.0071 4.83571V10.9429C14.0071 11.4071 13.6286 11.7786 13.1714 11.7786C12.7071 11.7786 12.3357 11.4 12.3357 10.9429V10.6643H11.7786V12.5714C11.7786 13.3571 11.1357 14 10.35 14H5.42857C4.64286 14 4 13.3571 4 12.5714V9.31429C4 8.52857 4.64286 7.88571 5.42857 7.88571H10.3429C11.0214 7.88571 11.5929 8.36429 11.7357 9H12.3286V7.88571C12.3286 7.72857 12.4571 7.60714 12.6071 7.60714C12.7643 7.60714 12.8857 7.73571 12.8857 7.88571V10.95C12.8857 11.1071 13.0143 11.2286 13.1643 11.2286C13.3214 11.2286 13.4429 11.1 13.4429 10.95V4.83571C13.4429 4.67857 13.3143 4.55714 13.1643 4.55714C13.0071 4.55714 12.8857 4.68571 12.8857 4.83571V6.5C12.8857 6.65714 12.7571 6.77857 12.6071 6.77857C12.45 6.77857 12.3286 6.65 12.3286 6.5V4.83571ZM4.92857 12.7571C4.92857 12.9857 5.11429 13.1714 5.34286 13.1714C5.57857 13.1714 5.75714 12.9857 5.75714 12.7571C5.75714 12.5286 5.57143 12.3429 5.34286 12.3429C5.11429 12.3429 4.92857 12.5286 4.92857 12.7571ZM6.22143 9C5.91429 9 5.66429 9.25 5.66429 9.55714C5.66429 9.86429 5.91429 10.1143 6.22143 10.1143H9.55714C9.86429 10.1143 10.1143 9.86429 10.1143 9.55714C10.1143 9.25 9.86429 9 9.55714 9H6.22143ZM6.24286 12.7571C6.24286 12.9857 6.42857 13.1714 6.65714 13.1714C6.88571 13.1714 7.07143 12.9857 7.07143 12.7571C7.07143 12.5286 6.88571 12.3429 6.65714 12.3429C6.42857 12.3429 6.24286 12.5286 6.24286 12.7571ZM7.98571 13.1714H10.6071C10.85 13.1714 11.05 12.9857 11.05 12.7571C11.05 12.5286 10.8571 12.3429 10.6143 12.3429H7.98571C7.74286 12.3429 7.55 12.5286 7.55 12.7571C7.55 12.9857 7.74286 13.1714 7.98571 13.1714ZM11.7786 10.1143H12.3357V9.55714H11.7786V10.1143ZM9.22854 5.57857C8.33569 4.71429 6.88569 4.71429 5.99283 5.57857C5.9214 5.65 5.79997 5.65 5.7214 5.57857C5.64997 5.50714 5.64997 5.38571 5.7214 5.31429C6.76426 4.3 8.45711 4.3 9.49997 5.31429C9.5714 5.38571 9.5714 5.50714 9.49997 5.57857C9.4214 5.65 9.29997 5.65 9.22854 5.57857ZM8.69293 6.1C8.76436 6.17143 8.76436 6.29286 8.69293 6.36429C8.61436 6.43571 8.49293 6.43571 8.42864 6.36429C7.97864 5.92857 7.25721 5.92857 6.80721 6.36429C6.72864 6.43571 6.60721 6.43571 6.53578 6.36429C6.46436 6.29286 6.46436 6.17143 6.53578 6.1C7.12864 5.52143 8.10007 5.52143 8.69293 6.1ZM7.33566 7.05714C7.33566 7.20714 7.45709 7.33571 7.61423 7.33571C7.77137 7.33571 7.8928 7.21429 7.8928 7.05714C7.8928 6.90714 7.77137 6.77857 7.61423 6.77857C7.45709 6.77857 7.33566 6.9 7.33566 7.05714Z" fill="white"/>
</g>
<defs>
<clipPath id="clip0_1618_1270">
<rect width="10" height="10" fill="white" transform="translate(4 4)"/>
</clipPath>
</defs>
</svg>
