<svg width="39" height="40" viewBox="0 0 39 40" fill="none" xmlns="http://www.w3.org/2000/svg">
<rect x="0.15" y="0.65" width="38.7" height="38.7" rx="7.85" fill="white"/>
<g clip-path="url(#clip0_170417_23625)">
<path d="M18.2812 27.3125C21.6467 27.3125 24.375 24.5842 24.375 21.2188C24.375 17.8533 21.6467 15.125 18.2812 15.125C14.9158 15.125 12.1875 17.8533 12.1875 21.2188C12.1875 24.5842 14.9158 27.3125 18.2812 27.3125Z" fill="url(#paint0_linear_170417_23625)"/>
<path d="M26.9412 32.2947C25.8011 32.2947 24.5142 32.0347 23.1074 31.5079C20.1269 30.3878 16.9064 28.1941 14.0394 25.327C11.1723 22.4599 8.97195 19.2328 7.85845 16.259C6.65161 13.0385 6.83164 10.4182 8.37186 8.88461C9.90542 7.35105 12.5258 7.16435 15.7463 8.3712C18.7267 9.49136 21.9472 11.685 24.8143 14.5521C27.6814 17.4192 29.8817 20.6463 30.9952 23.6201C32.202 26.8406 32.022 29.461 30.4818 30.9945C29.615 31.8613 28.4081 32.2947 26.9412 32.2947ZM11.9057 9.44469C10.9456 9.44469 10.1788 9.69806 9.67872 10.1981C8.70524 11.1716 8.67191 13.1386 9.59871 15.5989C10.6255 18.3327 12.6658 21.3198 15.3529 24.0068C18.0399 26.6939 21.027 28.7342 23.7608 29.761C26.2211 30.6811 28.1881 30.6545 29.1616 29.681C30.135 28.7075 30.1684 26.7406 29.2416 24.2802C28.2148 21.5465 26.1745 18.5594 23.4874 15.8723C20.8004 13.1852 17.8132 11.1449 15.0795 10.1181C13.8927 9.66472 12.8125 9.44469 11.9057 9.44469Z" fill="url(#paint1_linear_170417_23625)"/>
<path d="M27.9144 37.0619C26.5809 37.0619 25.134 36.8485 23.6005 36.4218C19.2998 35.2149 14.8058 32.4212 10.9386 28.5606C7.07137 24.7001 4.2843 20.1927 3.07745 15.8988C1.81727 11.4114 2.42402 7.64423 4.78437 5.28388C7.14472 2.92354 10.9119 2.31678 15.3993 3.57696C19.6999 4.78381 24.1939 7.57755 28.0611 11.4381C31.9283 15.2987 34.7154 19.806 35.9223 24.1C37.1824 28.5873 36.5757 32.3545 34.2153 34.7149C32.6618 36.2684 30.4948 37.0619 27.9144 37.0619ZM11.092 4.80381C9.01166 4.80381 7.29807 5.41057 6.10456 6.60407C4.24429 8.46435 3.81089 11.5848 4.87772 15.392C5.99788 19.3859 8.62493 23.5932 12.2655 27.2338C15.906 30.8743 20.1133 33.5014 24.1072 34.6215C27.9144 35.6883 31.0349 35.2549 32.8952 33.3947C34.7554 31.5344 35.1888 28.4139 34.122 24.6067C33.0018 20.6128 30.3748 16.4055 26.7343 12.765C23.0937 9.12444 18.8864 6.49739 14.8925 5.37723C13.5256 4.99051 12.2521 4.80381 11.092 4.80381Z" fill="url(#paint2_linear_170417_23625)"/>
<path d="M7.3125 34.625C8.65869 34.625 9.75 33.5337 9.75 32.1875C9.75 30.8413 8.65869 29.75 7.3125 29.75C5.9663 29.75 4.875 30.8413 4.875 32.1875C4.875 33.5337 5.9663 34.625 7.3125 34.625Z" fill="url(#paint3_linear_170417_23625)"/>
<path d="M25.5285 28.4008C26.1656 28.4008 26.682 27.8843 26.682 27.2473C26.682 26.6102 26.1656 26.0938 25.5285 26.0938C24.8914 26.0938 24.375 26.6102 24.375 27.2473C24.375 27.8843 24.8914 28.4008 25.5285 28.4008Z" fill="url(#paint4_linear_170417_23625)"/>
<path d="M13.341 14.9945C13.9781 14.9945 14.4945 14.4781 14.4945 13.841C14.4945 13.2039 13.9781 12.6875 13.341 12.6875C12.7039 12.6875 12.1875 13.2039 12.1875 13.841C12.1875 14.4781 12.7039 14.9945 13.341 14.9945Z" fill="url(#paint5_linear_170417_23625)"/>
<path d="M28.28 9.61768C29.6262 9.61768 30.7175 8.52637 30.7175 7.18018C30.7175 5.83398 29.6262 4.74268 28.28 4.74268C26.9338 4.74268 25.8425 5.83398 25.8425 7.18018C25.8425 8.52637 26.9338 9.61768 28.28 9.61768Z" fill="url(#paint6_linear_170417_23625)"/>
<path d="M33.1021 14.5479C33.7751 14.5479 34.3208 14.0022 34.3208 13.3291C34.3208 12.656 33.7751 12.1104 33.1021 12.1104C32.429 12.1104 31.8833 12.656 31.8833 13.3291C31.8833 14.0022 32.429 14.5479 33.1021 14.5479Z" fill="url(#paint7_linear_170417_23625)"/>
</g>
<rect x="0.15" y="0.65" width="38.7" height="38.7" rx="7.85" stroke="#E8F7FF" stroke-width="0.3"/>
<defs>
<linearGradient id="paint0_linear_170417_23625" x1="22.2571" y1="17.0049" x2="13.8948" y2="25.8675" gradientUnits="userSpaceOnUse">
<stop stop-color="#48C2FF"/>
<stop offset="1" stop-color="#5A3BAC"/>
</linearGradient>
<linearGradient id="paint1_linear_170417_23625" x1="14.0712" y1="25.4285" x2="24.1535" y2="13.795" gradientUnits="userSpaceOnUse">
<stop stop-color="#5E3CB2"/>
<stop offset="1" stop-color="#AADDFF"/>
</linearGradient>
<linearGradient id="paint2_linear_170417_23625" x1="10.9692" y1="27.7557" x2="28.0317" y2="11.4688" gradientUnits="userSpaceOnUse">
<stop stop-color="#5E3CB2"/>
<stop offset="1" stop-color="#45BBFF" stop-opacity="0"/>
</linearGradient>
<linearGradient id="paint3_linear_170417_23625" x1="4.86922" y1="32.1827" x2="9.75327" y2="32.1827" gradientUnits="userSpaceOnUse">
<stop stop-color="#40AAFD"/>
<stop offset="1" stop-color="#513AF9"/>
</linearGradient>
<linearGradient id="paint4_linear_170417_23625" x1="24.372" y1="27.2486" x2="26.6833" y2="27.2486" gradientUnits="userSpaceOnUse">
<stop stop-color="#48C2FF"/>
<stop offset="1" stop-color="#3998FC"/>
</linearGradient>
<linearGradient id="paint5_linear_170417_23625" x1="12.1845" y1="13.8378" x2="14.4958" y2="13.8378" gradientUnits="userSpaceOnUse">
<stop stop-color="#48C2FF"/>
<stop offset="1" stop-color="#3998FC"/>
</linearGradient>
<linearGradient id="paint6_linear_170417_23625" x1="25.8328" y1="7.17827" x2="30.7168" y2="7.17827" gradientUnits="userSpaceOnUse">
<stop stop-color="#48C2FF"/>
<stop offset="1" stop-color="#3998FC"/>
</linearGradient>
<linearGradient id="paint7_linear_170417_23625" x1="31.8835" y1="13.3304" x2="34.3255" y2="13.3304" gradientUnits="userSpaceOnUse">
<stop stop-color="#48C2FF"/>
<stop offset="1" stop-color="#3998FC"/>
</linearGradient>
<clipPath id="clip0_170417_23625">
<rect width="34.125" height="34.125" fill="white" transform="translate(2.4375 2.9375)"/>
</clipPath>
</defs>
</svg>
