<svg width="42" height="42" viewBox="0 0 42 42" fill="none" xmlns="http://www.w3.org/2000/svg">
<rect x="1.5" y="1.5" width="39" height="39" rx="19.5" fill="#52C41A"/>
<path d="M21 7.92188C13.7789 7.92188 7.92188 13.7789 7.92188 21C7.92188 28.2211 13.7789 34.0781 21 34.0781C28.2211 34.0781 34.0781 28.2211 34.0781 21C34.0781 13.7789 28.2211 7.92188 21 7.92188ZM19.875 13.4062C19.875 13.2516 20.0016 13.125 20.1562 13.125H21.8438C21.9984 13.125 22.125 13.2516 22.125 13.4062V22.9688C22.125 23.1234 21.9984 23.25 21.8438 23.25H20.1562C20.0016 23.25 19.875 23.1234 19.875 22.9688V13.4062ZM21 28.875C20.5584 28.866 20.138 28.6842 19.8288 28.3687C19.5197 28.0533 19.3466 27.6292 19.3466 27.1875C19.3466 26.7458 19.5197 26.3217 19.8288 26.0063C20.138 25.6908 20.5584 25.509 21 25.5C21.4416 25.509 21.8621 25.6908 22.1712 26.0063C22.4803 26.3217 22.6534 26.7458 22.6534 27.1875C22.6534 27.6292 22.4803 28.0533 22.1712 28.3687C21.8621 28.6842 21.4416 28.866 21 28.875Z" fill="#52C41A"/>
<path d="M21 5.25C12.3023 5.25 5.25 12.3023 5.25 21C5.25 29.6977 12.3023 36.75 21 36.75C29.6977 36.75 36.75 29.6977 36.75 21C36.75 12.3023 29.6977 5.25 21 5.25ZM21 34.0781C13.7789 34.0781 7.92188 28.2211 7.92188 21C7.92188 13.7789 13.7789 7.92188 21 7.92188C28.2211 7.92188 34.0781 13.7789 34.0781 21C34.0781 28.2211 28.2211 34.0781 21 34.0781Z" fill="#52C41A"/>
<path d="M20.1562 23.25H21.8438C21.9984 23.25 22.125 23.1234 22.125 22.9688V13.4062C22.125 13.2516 21.9984 13.125 21.8438 13.125H20.1562C20.0016 13.125 19.875 13.2516 19.875 13.4062V22.9688C19.875 23.1234 20.0016 23.25 20.1562 23.25ZM19.3125 27.1875C19.3125 27.6351 19.4903 28.0643 19.8068 28.3807C20.1232 28.6972 20.5524 28.875 21 28.875C21.4476 28.875 21.8768 28.6972 22.1932 28.3807C22.5097 28.0643 22.6875 27.6351 22.6875 27.1875C22.6875 26.7399 22.5097 26.3107 22.1932 25.9943C21.8768 25.6778 21.4476 25.5 21 25.5C20.5524 25.5 20.1232 25.6778 19.8068 25.9943C19.4903 26.3107 19.3125 26.7399 19.3125 27.1875Z" fill="white"/>
<rect x="1.5" y="1.5" width="39" height="39" rx="19.5" stroke="#FFF1F0" stroke-width="3"/>
</svg>
