<svg width="18" height="24" viewBox="0 0 18 24" fill="none" xmlns="http://www.w3.org/2000/svg">
<path d="M8.29281 0C8.78457 0 9.28146 0 9.77322 0C10.0754 0.0501044 10.3726 0.0951983 10.6748 0.150313C14.1837 0.766597 17.0728 3.51232 17.7951 6.92944C17.8719 7.30021 17.9334 7.67599 18 8.05177C18 8.53278 18 9.01879 18 9.49979C17.9795 9.64008 17.9539 9.77536 17.9334 9.91566C17.6619 11.8497 16.8321 13.5182 15.4592 14.9311C13.0516 17.4063 11.1717 20.2171 9.82957 23.3737C9.67077 23.7445 9.44026 24 9.00484 24C8.56943 24 8.3594 23.7244 8.18524 23.3687C7.65762 22.3115 7.13512 21.2392 6.54091 20.2171C5.39346 18.233 3.95915 16.4443 2.39678 14.7557C0.36826 12.5612 -0.420609 9.96576 0.214584 7.07975C1.00345 3.49228 3.30347 1.21754 6.91997 0.250522C7.36563 0.130271 7.83178 0.080167 8.29281 0Z" fill="#FDB022"/>
<path fill-rule="evenodd" clip-rule="evenodd" d="M7.92331 3C8.13824 3.07164 8.31736 3.17911 8.389 3.42987C8.46065 3.71645 8.28153 3.96721 7.99495 4.03885C7.70837 4.1105 7.42179 3.93138 7.35015 3.68063C7.2785 3.42987 7.42179 3.14329 7.67255 3.03582C7.71452 3.03582 7.7442 3.02353 7.76878 3.01335C7.78616 3.00615 7.801 3 7.81584 3H7.92331ZM15.3029 11.2392C15.3029 11.275 15.267 11.3109 15.267 11.3109C15.1596 11.5616 14.9088 11.6691 14.658 11.6333C14.4431 11.5975 14.264 11.3825 14.264 11.1318C14.264 10.881 14.4431 10.6661 14.6939 10.6302C14.9446 10.5944 15.1596 10.7377 15.267 10.9526C15.267 10.9885 15.3029 11.0243 15.3029 11.0243V11.2392ZM4.79868 8.81908C4.90615 8.82194 5.01477 8.82483 5.1291 8.83912C5.1291 8.83061 5.1291 8.82412 5.1267 8.8187C5.11899 8.80127 5.08656 8.79479 4.94999 8.76747L4.94998 8.76747C5.11118 8.78538 5.27239 8.79434 5.43359 8.80329L5.43361 8.80329C5.59481 8.81225 5.756 8.82121 5.91719 8.83912L5.96205 8.84799C6.1314 8.88131 6.32596 8.9196 6.49035 9.01823C6.74111 9.16152 6.81275 9.37645 6.66946 9.62721C6.59782 9.73468 6.49035 9.84215 6.38288 9.91379C6.20377 10.0213 6.02466 10.0929 5.84555 10.1287C5.41568 10.272 4.91416 10.272 4.44847 10.272C4.16189 10.272 3.87531 10.3078 3.58873 10.3795C3.26633 10.487 3.08721 10.7019 3.01557 11.0601C2.94392 11.4183 3.12304 11.6691 3.48126 11.7049H3.76784C4.37682 11.6333 5.02163 11.5616 5.66643 11.49C5.91719 11.4542 6.20377 11.4542 6.45453 11.49C6.8844 11.5616 7.02769 11.8482 6.84858 12.2423C6.74111 12.5288 6.562 12.7438 6.38288 12.9587C6.23959 13.1378 6.0963 13.3169 5.98884 13.496C5.7739 13.8543 6.06048 14.3916 6.52617 14.3916C6.70529 14.3916 6.8844 14.3558 7.06351 14.2483C7.31427 14.105 7.56503 13.8901 7.74414 13.6752C7.92325 13.496 8.06654 13.3169 8.20983 13.102C8.53223 12.6363 8.9621 12.3139 9.49944 12.099C10.001 11.9199 10.7174 11.9557 11.0756 12.6363C11.1115 12.7079 11.1473 12.7706 11.1831 12.8333C11.2189 12.896 11.2547 12.9587 11.2906 13.0303C11.3622 13.1378 11.4249 13.2542 11.4876 13.3707C11.5503 13.4871 11.613 13.6035 11.6846 13.711C11.8279 13.9259 12.007 14.0692 12.2578 14.1408C12.8309 14.32 13.4757 13.9617 13.6907 13.3886C13.7981 13.0662 13.7265 12.7796 13.4757 12.6005C13.2966 12.4572 13.0817 12.3497 12.8668 12.2781C12.5085 12.1348 12.1861 11.9915 11.8637 11.7766C11.613 11.5974 11.4339 11.3467 11.3622 11.0601C11.2906 10.7735 11.4339 10.5228 11.7563 10.5228C11.8279 10.5228 11.9085 10.5317 11.9891 10.5407L11.9891 10.5407C12.0697 10.5496 12.1503 10.5586 12.222 10.5586L12.3078 10.5694C12.5596 10.6013 12.7882 10.6302 13.0459 10.6302C13.3324 10.6302 13.5116 10.4511 13.5474 10.2004C13.5832 9.94961 13.4399 9.69886 13.1892 9.62721C13.0459 9.59139 12.9026 9.59139 12.7593 9.59139H12.4727C12.2578 9.59139 12.1145 9.41228 12.1503 9.19734C12.1861 8.94658 12.3294 8.76747 12.5444 8.66C12.6518 8.58836 12.7951 8.55254 12.9026 8.55254L13.7623 8.44507C14.1564 8.37342 14.4071 8.12267 14.4788 7.72862C14.5862 7.29875 14.3713 6.94052 13.9773 6.86888C13.8698 6.83306 13.7623 6.83306 13.6549 6.83306C13.2668 6.86539 12.9372 6.95609 12.5869 7.05248L12.4727 7.08381C12.222 7.15546 11.9354 7.19128 11.6846 7.11964C11.5055 7.08381 11.3622 6.94052 11.398 6.72559V6.72558C11.4339 6.51065 11.4697 6.29572 11.5771 6.11661C11.7563 5.83003 11.9354 5.57927 12.1145 5.32851C12.2578 5.11358 12.4011 4.89864 12.4727 4.68371C12.5802 4.43295 12.4727 4.07472 12.222 3.93143C12.007 3.78814 11.7204 3.82397 11.5055 4.0389C11.398 4.14637 11.2906 4.25384 11.1831 4.39713C11.1115 4.48668 11.0488 4.57624 10.9861 4.66579L10.9861 4.66581C10.9234 4.75536 10.8607 4.84491 10.7891 4.93446C10.7655 4.95801 10.7419 4.98253 10.7181 5.00738L10.7181 5.00739L10.7181 5.00741C10.5967 5.13375 10.4671 5.26865 10.2875 5.32851C10.0368 5.43598 9.85767 5.32851 9.82184 5.07775C9.82184 4.93446 9.82184 4.827 9.78602 4.68371C9.77354 4.63378 9.76541 4.5795 9.75708 4.5239L9.75707 4.52389C9.7415 4.41994 9.72523 4.31137 9.67855 4.21801C9.60691 4.07472 9.49944 3.96726 9.32033 3.96726C9.17704 3.93143 9.06957 4.07472 8.99793 4.18219C8.99793 4.2001 8.98897 4.21801 8.98001 4.23592C8.97106 4.25384 8.9621 4.27175 8.9621 4.28966C8.89046 4.61205 8.783 4.89862 8.67553 5.1852L8.67553 5.1852L8.67552 5.18522C8.60388 5.43598 8.53223 5.68674 8.35312 5.86585C8.17401 6.11661 7.92325 6.11661 7.77996 5.86585C7.70026 5.75958 7.65996 5.67301 7.61523 5.57692C7.59965 5.54345 7.58353 5.50882 7.56503 5.4718C7.53329 5.39776 7.50468 5.32371 7.47643 5.25059L7.47642 5.25058C7.409 5.07607 7.3436 4.90682 7.24262 4.75535C7.13516 4.57624 6.99187 4.43295 6.84858 4.28966C6.49035 4.00308 6.02466 4.0389 5.73808 4.39713C5.4515 4.71953 5.41568 5.11358 5.52314 5.50762C5.63061 5.90167 5.88137 6.22407 6.20377 6.51065L7.06351 7.37039C7.09933 7.40622 7.13516 7.51368 7.13516 7.54951C7.09933 7.58533 7.02769 7.62115 6.95604 7.62115C6.81786 7.60388 6.68801 7.59493 6.56247 7.58629C6.42765 7.577 6.2978 7.56806 6.16795 7.54951C5.97092 7.53159 5.7739 7.49577 5.57688 7.45995L5.57686 7.45995C5.37984 7.42413 5.18282 7.3883 4.98581 7.37039C4.55594 7.33457 4.23353 7.51368 3.98278 7.83609C3.66037 8.23013 3.80366 8.66 4.30518 8.76747C4.47743 8.81054 4.63675 8.81477 4.79868 8.81908ZM9.21286 6.47483C8.92628 6.86888 8.53223 7.08381 8.03072 7.11964C7.98023 7.10701 7.92974 7.09884 7.87769 7.09041C7.782 7.07492 7.68103 7.05857 7.56503 7.01217C7.45756 6.97635 7.38591 6.86888 7.42174 6.76141C7.45756 6.65394 7.5292 6.5823 7.67249 6.61812C8.3173 6.72559 8.78299 6.47483 9.06957 5.86585C9.09017 5.84525 9.09892 5.83649 9.10264 5.82596C9.10539 5.81818 9.10539 5.80943 9.10539 5.7942C9.17704 5.65091 9.28451 5.61509 9.39197 5.65091C9.53526 5.72256 9.57109 5.83003 9.49944 5.97332C9.4278 6.15243 9.32033 6.33154 9.21286 6.47483ZM10.7891 14.1407C10.7712 14.2123 10.7532 14.2929 10.7353 14.3735C10.7174 14.4541 10.6995 14.5347 10.6816 14.6064C10.5383 14.9288 10.2876 15.0721 9.92933 14.9646C9.53528 14.8929 9.2487 14.5347 9.2487 14.1048C9.2487 13.8541 9.28452 13.6391 9.42781 13.4242C9.71439 12.9227 10.3234 12.9585 10.61 13.46C10.7174 13.675 10.7532 13.8899 10.7891 14.1407ZM3.19466 6.22399C3.19466 6.54639 3.44542 6.83297 3.80364 6.83297C4.12605 6.83297 4.41263 6.54639 4.44845 6.22399C4.44845 5.86576 4.16187 5.57918 3.80364 5.57918C3.48124 5.57918 3.19466 5.86576 3.19466 6.22399Z" fill="white"/>
</svg>
