<svg width="18" height="24" viewBox="0 0 18 24" fill="none" xmlns="http://www.w3.org/2000/svg">
<path d="M8.29281 0C8.78457 0 9.28146 0 9.77322 0C10.0754 0.0501044 10.3726 0.0951983 10.6748 0.150313C14.1837 0.766597 17.0728 3.51232 17.7951 6.92944C17.8719 7.30021 17.9334 7.67599 18 8.05177C18 8.53278 18 9.01879 18 9.49979C17.9795 9.64008 17.9539 9.77536 17.9334 9.91566C17.6619 11.8497 16.8321 13.5182 15.4592 14.9311C13.0516 17.4063 11.1717 20.2171 9.82957 23.3737C9.67077 23.7445 9.44026 24 9.00484 24C8.56943 24 8.3594 23.7244 8.18524 23.3687C7.65762 22.3115 7.13512 21.2392 6.54091 20.2171C5.39346 18.233 3.95915 16.4443 2.39678 14.7557C0.36826 12.5612 -0.420609 9.96576 0.214584 7.07975C1.00345 3.49228 3.30347 1.21754 6.91997 0.250522C7.36563 0.130271 7.83178 0.080167 8.29281 0Z" fill="#FDB022"/>
<path fill-rule="evenodd" clip-rule="evenodd" d="M8.96568 3.02347C8.9 3.0168 8.83316 3.01001 8.76311 3H8.45159C8.42044 3.03115 8.38928 3.03115 8.35813 3.03115C7.48586 3.06231 6.73819 3.37383 6.05283 3.93458C5.58554 4.30841 5.24286 4.74455 4.99364 5.27414C4.93134 5.42991 4.93134 5.61682 5.05595 5.74143C5.18056 5.83489 5.33632 5.8972 5.49209 5.83489C5.6167 5.77259 5.679 5.67913 5.74131 5.55452C6.42667 4.21495 7.95315 3.49844 9.41732 3.90343C10.3519 4.15265 11.0373 4.7134 11.4734 5.58567C11.598 5.83489 11.8161 5.8972 12.0341 5.80374C12.2211 5.71028 12.3145 5.46106 12.1899 5.24299C11.598 4.09034 10.6634 3.37383 9.38617 3.09346C9.23815 3.05117 9.10448 3.03758 8.96568 3.02347ZM14.028 13H14.1838V12.7508C14.1215 12.6262 13.9969 12.595 13.8723 12.595H3.28037H3.15576C3.06231 12.6262 3 12.6885 3 12.7819V13H3.15576H14.028ZM13.8099 12.1902H3.40487V12.0655V9.66679C3.40487 9.44872 3.46717 9.38641 3.68524 9.38641H13.5295C13.7475 9.38641 13.8099 9.44872 13.8099 9.66679V12.0655V12.1902ZM10.0094 6.48903C10.1028 6.64479 10.1963 6.73825 10.352 6.73825C10.6947 6.73825 10.8816 6.42672 10.7259 6.14635C10.1651 4.9937 8.76325 4.49526 7.57945 5.02486C7.08101 5.24292 6.67603 5.61676 6.42681 6.14635C6.3645 6.30211 6.3645 6.45788 6.45796 6.58249C6.55142 6.7071 6.67603 6.7694 6.83179 6.73825C7.01871 6.7071 7.11216 6.58249 7.17447 6.45788C7.5483 5.80367 8.29596 5.46099 9.01248 5.67906C9.44861 5.80367 9.79129 6.08405 10.0094 6.48903ZM3.81015 9.0126C3.81015 8.9802 3.80641 8.95154 3.80281 8.92403C3.79604 8.8722 3.7898 8.82444 3.81015 8.76338C3.83027 8.72315 3.86338 8.6959 3.90108 8.66487C3.92177 8.64785 3.94384 8.62969 3.96591 8.60762C3.98763 8.5859 4.0245 8.59446 4.05539 8.60164C4.0688 8.60476 4.08109 8.60762 4.09052 8.60762H13.0936C13.1871 8.60762 13.2806 8.63877 13.3429 8.66992C13.3832 8.73045 13.3974 8.80404 13.4109 8.87378L13.4109 8.8738C13.4182 8.91173 13.4253 8.94852 13.4363 8.98145C10.1965 9.0126 7.01897 9.0126 3.8103 9.0126H3.81015ZM8.57629 7.61063C8.79436 7.61063 8.98127 7.42371 8.98127 7.20564C9.01243 6.98758 8.82551 6.80066 8.57629 6.80066C8.35822 6.80066 8.17131 6.98758 8.17131 7.20564C8.17131 7.42371 8.35822 7.61063 8.57629 7.61063Z" fill="white"/>
</svg>
