<svg width="18" height="24" viewBox="0 0 18 24" fill="none" xmlns="http://www.w3.org/2000/svg">
<path d="M8.29281 0C8.78457 0 9.28146 0 9.77322 0C10.0754 0.0501044 10.3726 0.0951983 10.6748 0.150313C14.1837 0.766597 17.0728 3.51232 17.7951 6.92944C17.8719 7.30021 17.9334 7.67599 18 8.05177C18 8.53278 18 9.01879 18 9.49979C17.9795 9.64008 17.9539 9.77536 17.9334 9.91566C17.6619 11.8497 16.8321 13.5182 15.4592 14.9311C13.0516 17.4063 11.1717 20.2171 9.82957 23.3737C9.67077 23.7445 9.44026 24 9.00484 24C8.56943 24 8.3594 23.7244 8.18524 23.3687C7.65762 22.3115 7.13512 21.2392 6.54091 20.2171C5.39346 18.233 3.95915 16.4443 2.39678 14.7557C0.36826 12.5612 -0.420609 9.96576 0.214584 7.07975C1.00345 3.49228 3.30347 1.21754 6.91997 0.250522C7.36563 0.130271 7.83178 0.080167 8.29281 0Z" fill="#FDB022"/>
<path fill-rule="evenodd" clip-rule="evenodd" d="M12.9245 11.0147C12.9396 10.9061 12.9547 10.7974 12.9698 10.6972C12.9698 10.5634 12.9698 10.4297 13 10.296C12.9698 10.2626 12.9698 10.2291 12.9698 10.1957C12.9094 9.89485 12.8491 9.62741 12.7887 9.35997C12.5472 8.52423 12.1849 7.78878 11.7925 7.05333C11.0679 5.68272 10.1925 4.4124 9.28679 3.17551C9.10566 2.9415 8.89434 2.9415 8.71321 3.17551C7.98868 4.14496 7.29434 5.11442 6.69057 6.15074C6.14717 7.08676 5.63396 8.05622 5.2717 9.09254C5.12075 9.52712 5 9.99513 5 10.4631C5.03019 11.4995 5.30189 12.4689 5.90566 13.3047C6.90189 14.6418 8.2 15.2436 9.73962 14.9093C11.3396 14.575 12.5774 13.1041 12.8792 11.3323C12.8943 11.232 12.9094 11.1234 12.9245 11.0147ZM8.92453 3.97781L8.98491 3.91096C9.05009 4.00377 9.11528 4.0934 9.17959 4.18181C9.32373 4.38 9.46342 4.57207 9.58868 4.78012C10.3736 5.95016 11.1283 7.12019 11.7321 8.42395C11.9434 8.89196 12.1547 9.3934 12.2453 9.92828C12.3962 10.5969 12.3057 11.2655 12.0642 11.9006C11.6113 13.1375 10.8264 13.9733 9.61887 14.2407C8.23019 14.5416 7.11321 13.9733 6.26792 12.7364C5.81509 12.0678 5.60377 11.3323 5.60377 10.4966C5.60377 10.0286 5.75472 9.56055 5.90566 9.12597C6.23774 8.22337 6.69057 7.42106 7.17358 6.61875C7.71698 5.71615 8.29057 4.81355 8.92453 3.97781ZM6.96235 12.8702C7.53593 13.4719 8.23027 13.7059 8.98499 13.7059H9.2265C9.27636 13.7059 9.31707 13.6958 9.35366 13.6867C9.38354 13.6792 9.41068 13.6725 9.43782 13.6725C10.2529 13.5722 10.8869 13.171 11.3397 12.3687C11.702 11.7001 11.8529 10.9981 11.8529 10.2292C11.8529 10.0287 11.7623 9.89494 11.6114 9.86151C11.4605 9.82808 11.3397 9.89494 11.2491 10.0621C11.1284 10.3295 10.9473 10.4632 10.6756 10.4632C10.4039 10.4632 10.2227 10.3295 10.102 10.0621C10.0718 9.92837 9.98122 9.86151 9.86046 9.86151C9.70952 9.86151 9.58876 9.92837 9.52839 10.0955C9.40763 10.3295 9.2265 10.4632 8.9548 10.4632C8.71329 10.4632 8.53216 10.3295 8.41141 10.0955C8.35103 9.9618 8.26046 9.86151 8.10952 9.86151C7.95858 9.86151 7.86801 9.9618 7.80763 10.0955C7.74726 10.2627 7.65669 10.363 7.50575 10.4298C7.17367 10.597 6.81141 10.4298 6.66046 10.0955C6.60009 9.9618 6.53971 9.89494 6.41895 9.86151C6.20763 9.82808 6.0265 9.99522 6.05669 10.2292C6.08688 10.5635 6.11707 10.8644 6.17744 11.1987C6.2982 11.8339 6.53971 12.4022 6.96235 12.8702Z" fill="white"/>
</svg>
