<svg width="18" height="24" viewBox="0 0 18 24" fill="none" xmlns="http://www.w3.org/2000/svg">
<path d="M8.29281 0C8.78457 0 9.28146 0 9.77322 0C10.0754 0.0501044 10.3726 0.0951983 10.6748 0.150313C14.1837 0.766597 17.0728 3.51232 17.7951 6.92944C17.8719 7.30021 17.9334 7.67599 18 8.05177C18 8.53278 18 9.01879 18 9.49979C17.9795 9.64008 17.9539 9.77536 17.9334 9.91566C17.6619 11.8497 16.8321 13.5182 15.4592 14.9311C13.0516 17.4063 11.1717 20.2171 9.82957 23.3737C9.67077 23.7445 9.44026 24 9.00484 24C8.56943 24 8.3594 23.7244 8.18524 23.3687C7.65762 22.3115 7.13512 21.2392 6.54091 20.2171C5.39346 18.233 3.95915 16.4443 2.39678 14.7557C0.36826 12.5612 -0.420609 9.96576 0.214584 7.07975C1.00345 3.49228 3.30347 1.21754 6.91997 0.250522C7.36563 0.130271 7.83178 0.080167 8.29281 0Z" fill="#D2BA96"/>
<path fill-rule="evenodd" clip-rule="evenodd" d="M11.4571 3.55796C11.4738 3.56631 11.4905 3.57465 11.5072 3.59135C13.9441 4.72635 15.3795 7.33017 14.9122 10.0008C14.7786 10.8353 14.4782 11.5697 14.0108 12.2708C13.9107 12.4711 13.677 12.5712 13.4767 12.4711C13.1095 12.3041 12.7757 12.1372 12.4085 11.9369C12.2082 11.8368 12.1414 11.6031 12.2082 11.4028C12.275 11.2025 12.4752 11.069 12.6755 11.1024C12.7423 11.1024 12.8425 11.1358 12.9092 11.1691C13.1095 11.2359 13.2764 11.3027 13.4433 11.4028C14.1777 10.0341 14.2779 8.63209 13.7438 7.16326C13.7183 7.17601 13.6976 7.18389 13.68 7.19062C13.6515 7.20151 13.6309 7.20939 13.6102 7.23003C13.4433 7.33017 13.243 7.43032 13.0761 7.49709C12.8091 7.63061 12.5086 7.4637 12.4419 7.16326C12.3751 6.96297 12.5086 6.76267 12.7089 6.66253L12.7089 6.66252C12.9092 6.56238 13.1095 6.46223 13.3432 6.36208C12.4419 4.96002 11.1733 4.15885 9.50422 3.95855V4.09208V4.69296C9.50422 4.92664 9.3373 5.12694 9.10363 5.16032C8.93671 5.1937 8.80319 5.12694 8.70304 5.02679L8.66966 4.99341C8.63627 4.96002 8.60289 4.92664 8.60289 4.89326C8.56951 4.82649 8.53613 4.75973 8.53613 4.69296V4.09208V3.99193C8.48908 4.0037 8.44203 4.01131 8.39352 4.01917C8.30435 4.03361 8.21026 4.04884 8.10215 4.09208C7.70157 4.15885 7.30098 4.25899 6.93377 4.4259C5.99906 4.82649 5.23127 5.49414 4.63039 6.42885C4.73053 6.47892 4.83903 6.529 4.94752 6.57907C5.05601 6.62914 5.1645 6.67922 5.26465 6.72929C5.46495 6.82944 5.56509 7.02973 5.53171 7.23003C5.49833 7.53047 5.19789 7.69738 4.89745 7.56385C4.81399 7.51378 4.72219 7.47205 4.63039 7.43032C4.53858 7.38859 4.44678 7.34686 4.36333 7.29679C4.3427 7.27616 4.32206 7.26828 4.29355 7.25739C4.27593 7.25066 4.2553 7.24278 4.2298 7.23003C3.92936 8.13135 3.82921 9.03268 3.99612 9.90062C3.84145 10.0774 3.67215 10.2395 3.49791 10.4064C3.40891 10.4916 3.31862 10.5781 3.22833 10.6684C3.21163 10.5683 3.1866 10.4681 3.16156 10.368C3.13652 10.2678 3.11149 10.1677 3.0948 10.0675C2.56068 7.06311 4.32994 4.19223 7.23421 3.25752C8.60289 2.85693 9.97157 2.9237 11.2735 3.45782C11.2902 3.47451 11.3152 3.48285 11.3402 3.4912C11.3653 3.49954 11.3903 3.50789 11.407 3.52458C11.4237 3.54127 11.4404 3.54962 11.4571 3.55796ZM10.2054 8.6989C10.0718 8.09802 9.70464 7.7642 9.13714 7.63067C9.03699 7.63067 8.97023 7.63067 8.87008 7.59728H8.80331C8.36934 7.59728 8.00214 7.79758 7.70169 8.09802C6.46655 9.29979 5.2314 10.5016 3.99625 11.7367C3.92948 11.8035 3.8961 11.8702 3.86272 11.9704C3.82934 12.1707 3.8961 12.3042 4.02963 12.4377C4.19654 12.6046 4.36346 12.6046 4.56375 12.5045C5.26476 12.1874 5.95743 11.8702 6.65009 11.5531C7.3428 11.236 8.0355 10.9188 8.73655 10.6017C9.07037 10.4682 9.37081 10.3346 9.67126 10.1343C10.1386 9.8339 10.3389 9.23302 10.2054 8.6989Z" fill="white"/>
</svg>
