<svg width="36" height="53" viewBox="0 0 36 53" fill="none" xmlns="http://www.w3.org/2000/svg">
<path d="M16.2546 0.947372C17.2185 0.947372 18.1924 0.947372 19.1563 0.947372C19.7487 1.05549 20.3311 1.1528 20.9235 1.27173C27.8013 2.60161 33.4642 8.52658 34.8799 15.9004C35.0305 16.7005 35.151 17.5114 35.2815 18.3223C35.2815 19.3602 35.2815 20.409 35.2815 21.4469C35.2413 21.7497 35.1911 22.0416 35.151 22.3443C34.6188 26.5177 32.9923 30.1181 30.3014 33.1671C25.5823 38.5083 21.8974 44.5738 19.2668 51.3853C18.9555 52.1854 18.5037 52.7368 17.6502 52.7368C16.7968 52.7368 16.3851 52.1422 16.0437 51.3745C15.0096 49.0932 13.9854 46.7794 12.8207 44.5738C10.5716 40.2922 7.76027 36.4324 4.69789 32.7887C0.721821 28.0531 -0.82443 22.4524 0.420603 16.2247C1.96685 8.48334 6.47507 3.57469 13.5637 1.48797C14.4373 1.22848 15.351 1.12036 16.2546 0.947372Z" fill="#52C41A"/>
<g clip-path="url(#clip0_648_66970)">
<path fill-rule="evenodd" clip-rule="evenodd" d="M17.3191 13.6231C14.682 13.9639 12.6778 15.3269 11.2538 17.7123C11.623 17.8827 11.9394 18.0531 12.2559 18.2234C12.5723 18.3938 12.7833 18.7346 12.6778 19.0754C12.5723 19.5865 12.0976 19.8705 11.6757 19.6433C11.412 19.5297 11.0955 19.3593 10.8318 19.1889C10.7992 19.1538 10.7666 19.1404 10.7216 19.1219C10.6938 19.1105 10.6612 19.097 10.6209 19.0754C9.72425 21.6311 9.88247 24.0165 11.0428 26.345C11.3065 26.1747 11.5702 26.0611 11.8867 25.9475C11.9922 25.8907 12.1504 25.8339 12.2559 25.8339C12.5723 25.7771 12.8888 26.0043 12.9943 26.345C13.0997 26.6858 12.9943 27.0834 12.6778 27.2537C12.0976 27.5945 11.5702 27.8785 10.9901 28.1625C10.6736 28.3328 10.3044 28.1625 10.1462 27.8217C9.40779 26.629 8.93311 25.3795 8.72215 23.9597C7.87827 18.8482 10.6736 13.9639 15.2622 12.4304C17.5301 11.6921 19.6925 11.8625 21.855 12.8848C22.2769 13.0551 22.4879 13.5095 22.2769 13.9071C22.1187 14.3046 21.6967 14.475 21.2748 14.3046C20.6946 14.0774 20.0617 13.8503 19.3761 13.6799C19.1651 13.6231 19.0069 13.6231 18.7959 13.6231V14.8158C18.7959 15.3269 18.4267 15.6677 17.952 15.6109C17.5828 15.5541 17.3191 15.2133 17.3191 14.8158V13.7935V13.6231ZM27.4984 22.7102L27.4841 22.8497C27.4357 23.3233 27.3834 23.8354 27.2874 24.3004C27.0764 25.5499 26.549 26.7426 25.9161 27.8217C25.7051 28.1625 25.3359 28.276 24.9667 28.1057C24.703 27.9637 24.4393 27.8359 24.1756 27.7081C23.9119 27.5803 23.6482 27.4525 23.3845 27.3105C23.0153 27.0834 22.857 26.629 23.068 26.2882C23.2262 25.8907 23.6482 25.7203 24.0174 25.8907C24.0965 25.9191 24.1756 25.9617 24.2547 26.0043C24.3338 26.0469 24.4129 26.0895 24.4921 26.1179C24.5942 26.1545 24.6964 26.2149 24.8128 26.2836L24.8128 26.2836L24.8128 26.2837C24.8767 26.3214 24.9448 26.3616 25.0195 26.4018C25.081 26.2361 25.1426 26.0753 25.2028 25.9179L25.2028 25.9178C25.3491 25.5356 25.4876 25.1736 25.5996 24.8116C26.1798 22.767 26.1271 20.7792 25.3359 18.7914C25.2304 18.5642 25.1777 18.337 25.2832 18.0531C25.3887 17.7691 25.6524 17.5419 25.9688 17.5419C26.2853 17.5419 26.549 17.7123 26.6545 18.0531C26.8655 18.621 27.0764 19.2457 27.1819 19.8137C27.2347 20.0693 27.2742 20.339 27.3138 20.6088C27.3533 20.8786 27.3929 21.1483 27.4456 21.4039C27.4456 21.4607 27.4456 21.5175 27.4984 21.5743V22.7102ZM16.0006 23.1078C16.4225 24.0733 17.1082 24.5276 18.0048 24.5844C18.1103 24.5844 18.2158 24.5844 18.2685 24.6412H18.374C19.1124 24.4708 19.5871 24.0165 19.9563 23.4485C20.7474 22.2275 21.5385 21.0206 22.3296 19.8137C23.1208 18.6068 23.9119 17.3999 24.7031 16.1788C24.8086 16.0652 24.8613 15.8949 24.8613 15.7245C24.8613 15.3837 24.7558 15.1565 24.4921 14.9862C24.2284 14.759 23.9119 14.8158 23.6482 15.043C22.6725 15.7813 21.6836 16.5196 20.6946 17.258C19.7057 17.9963 18.7168 18.7346 17.7411 19.4729C17.2664 19.8137 16.7917 20.1544 16.4225 20.552C15.7896 21.1767 15.6314 22.2558 16.0006 23.1078Z" fill="white"/>
</g>
<defs>
<clipPath id="clip0_648_66970">
<rect width="20.0393" height="21.5789" fill="white" transform="translate(8.01573 9.57895)"/>
</clipPath>
</defs>
</svg>
