<svg width="18" height="24" viewBox="0 0 18 24" fill="none" xmlns="http://www.w3.org/2000/svg">
<path d="M8.29281 0C8.78457 0 9.28146 0 9.77322 0C10.0754 0.0501044 10.3726 0.0951983 10.6748 0.150313C14.1837 0.766597 17.0728 3.51232 17.7951 6.92944C17.8719 7.30021 17.9334 7.67599 18 8.05177C18 8.53278 18 9.01879 18 9.49979C17.9795 9.64008 17.9539 9.77536 17.9334 9.91566C17.6619 11.8497 16.8321 13.5182 15.4592 14.9311C13.0516 17.4063 11.1717 20.2171 9.82957 23.3737C9.67077 23.7445 9.44026 24 9.00484 24C8.56943 24 8.3594 23.7244 8.18524 23.3687C7.65762 22.3115 7.13512 21.2392 6.54091 20.2171C5.39346 18.233 3.95915 16.4443 2.39678 14.7557C0.36826 12.5612 -0.420609 9.96576 0.214584 7.07975C1.00345 3.49228 3.30347 1.21754 6.91997 0.250522C7.36563 0.130271 7.83178 0.080167 8.29281 0Z" fill="#4064FF"/>
<g clip-path="url(#clip0_1618_1255)">
<path fill-rule="evenodd" clip-rule="evenodd" d="M12.3286 3.83571C12.3286 3.37143 12.7071 3 13.1643 3C13.6286 3 14 3.37143 14.0071 3.83571V9.94286C14.0071 10.4071 13.6286 10.7786 13.1714 10.7786C12.7071 10.7786 12.3357 10.4 12.3357 9.94286V9.66429H11.7786V11.5714C11.7786 12.3571 11.1357 13 10.35 13H5.42857C4.64286 13 4 12.3571 4 11.5714V8.31429C4 7.52857 4.64286 6.88571 5.42857 6.88571H10.3429C11.0214 6.88571 11.5929 7.36429 11.7357 8H12.3286V6.88571C12.3286 6.72857 12.4571 6.60714 12.6071 6.60714C12.7643 6.60714 12.8857 6.73571 12.8857 6.88571V9.95C12.8857 10.1071 13.0143 10.2286 13.1643 10.2286C13.3214 10.2286 13.4429 10.1 13.4429 9.95V3.83571C13.4429 3.67857 13.3143 3.55714 13.1643 3.55714C13.0071 3.55714 12.8857 3.68571 12.8857 3.83571V5.5C12.8857 5.65714 12.7571 5.77857 12.6071 5.77857C12.45 5.77857 12.3286 5.65 12.3286 5.5V3.83571ZM4.92857 11.7571C4.92857 11.9857 5.11429 12.1714 5.34286 12.1714C5.57857 12.1714 5.75714 11.9857 5.75714 11.7571C5.75714 11.5286 5.57143 11.3429 5.34286 11.3429C5.11429 11.3429 4.92857 11.5286 4.92857 11.7571ZM6.22143 8C5.91429 8 5.66429 8.25 5.66429 8.55714C5.66429 8.86429 5.91429 9.11429 6.22143 9.11429H9.55714C9.86429 9.11429 10.1143 8.86429 10.1143 8.55714C10.1143 8.25 9.86429 8 9.55714 8H6.22143ZM6.24286 11.7571C6.24286 11.9857 6.42857 12.1714 6.65714 12.1714C6.88571 12.1714 7.07143 11.9857 7.07143 11.7571C7.07143 11.5286 6.88571 11.3429 6.65714 11.3429C6.42857 11.3429 6.24286 11.5286 6.24286 11.7571ZM7.98571 12.1714H10.6071C10.85 12.1714 11.05 11.9857 11.05 11.7571C11.05 11.5286 10.8571 11.3429 10.6143 11.3429H7.98571C7.74286 11.3429 7.55 11.5286 7.55 11.7571C7.55 11.9857 7.74286 12.1714 7.98571 12.1714ZM11.7786 9.11429H12.3357V8.55714H11.7786V9.11429ZM9.22854 4.57857C8.33569 3.71429 6.88569 3.71429 5.99283 4.57857C5.9214 4.65 5.79997 4.65 5.7214 4.57857C5.64997 4.50714 5.64997 4.38571 5.7214 4.31429C6.76426 3.3 8.45711 3.3 9.49997 4.31429C9.5714 4.38571 9.5714 4.50714 9.49997 4.57857C9.4214 4.65 9.29997 4.65 9.22854 4.57857ZM8.69293 5.1C8.76436 5.17143 8.76436 5.29286 8.69293 5.36429C8.61436 5.43571 8.49293 5.43571 8.42864 5.36429C7.97864 4.92857 7.25721 4.92857 6.80721 5.36429C6.72864 5.43571 6.60721 5.43571 6.53578 5.36429C6.46436 5.29286 6.46436 5.17143 6.53578 5.1C7.12864 4.52143 8.10007 4.52143 8.69293 5.1ZM7.33566 6.05714C7.33566 6.20714 7.45709 6.33571 7.61423 6.33571C7.77137 6.33571 7.8928 6.21429 7.8928 6.05714C7.8928 5.90714 7.77137 5.77857 7.61423 5.77857C7.45709 5.77857 7.33566 5.9 7.33566 6.05714Z" fill="white"/>
</g>
<defs>
<clipPath id="clip0_1618_1255">
<rect width="10" height="10" fill="white" transform="translate(4 3)"/>
</clipPath>
</defs>
</svg>
