<svg width="36" height="52" viewBox="0 0 36 52" fill="none" xmlns="http://www.w3.org/2000/svg">
<path d="M16.3756 0.0526276C17.3395 0.0526276 18.3134 0.0526276 19.2773 0.0526276C19.8697 0.160748 20.4521 0.258056 21.0444 0.376988C27.9222 1.70686 33.5851 7.63184 35.0009 15.0056C35.1515 15.8057 35.272 16.6166 35.4025 17.4275C35.4025 18.4655 35.4025 19.5142 35.4025 20.5522C35.3623 20.8549 35.3121 21.1468 35.272 21.4496C34.7398 25.623 33.1132 29.2234 30.4224 32.2724C25.7033 37.6135 22.0184 43.679 19.3877 50.4906C19.0765 51.2907 18.6247 51.8421 17.7712 51.8421C16.9178 51.8421 16.5061 51.2474 16.1647 50.4798C15.1305 48.1985 14.1064 45.8847 12.9417 43.679C10.6926 39.3975 7.88124 35.5376 4.81886 31.894C0.842792 27.1583 -0.703458 21.5577 0.541574 15.33C2.08782 7.58859 6.59605 2.67994 13.6847 0.593228C14.5582 0.33374 15.4719 0.22562 16.3756 0.0526276Z" fill="#FAAD14"/>
<g clip-path="url(#clip0_648_66969)">
<path fill-rule="evenodd" clip-rule="evenodd" d="M17.4401 12.7283C14.803 13.0691 12.7988 14.4322 11.3748 16.8175C11.7439 16.9879 12.0604 17.1583 12.3769 17.3287C12.6933 17.4991 12.9043 17.8398 12.7988 18.1806C12.6933 18.6918 12.2186 18.9757 11.7967 18.7486C11.533 18.635 11.2165 18.4646 10.9528 18.2942C10.9202 18.2591 10.8876 18.2457 10.8426 18.2272C10.8147 18.2157 10.7821 18.2023 10.7418 18.1806C9.84523 20.7364 10.0035 23.1217 11.1638 25.4503C11.4275 25.2799 11.6912 25.1663 12.0077 25.0527C12.1131 24.9959 12.2714 24.9391 12.3769 24.9391C12.6933 24.8823 13.0098 25.1095 13.1152 25.4503C13.2207 25.7911 13.1152 26.1886 12.7988 26.359C12.2186 26.6998 11.6912 26.9837 11.111 27.2677C10.7946 27.4381 10.4254 27.2677 10.2672 26.9269C9.52877 25.7343 9.05409 24.4848 8.84312 23.0649C7.99925 17.9534 10.7946 13.0691 15.3832 11.5357C17.6511 10.7973 19.8135 10.9677 21.9759 11.99C22.3979 12.1604 22.6088 12.6148 22.3979 13.0123C22.2396 13.4099 21.8177 13.5803 21.3958 13.4099C20.8156 13.1827 20.1827 12.9555 19.4971 12.7851C19.2861 12.7283 19.1279 12.7283 18.9169 12.7283V13.921C18.9169 14.4322 18.5477 14.7729 18.073 14.7161C17.7038 14.6594 17.4401 14.3186 17.4401 13.921V12.8987V12.7283ZM27.6193 21.8154L27.605 21.955C27.5567 22.4285 27.5044 22.9406 27.4084 23.4057C27.1974 24.6552 26.67 25.8479 26.0371 26.9269C25.8261 27.2677 25.4569 27.3813 25.0877 27.2109C24.824 27.0689 24.5603 26.9411 24.2966 26.8134C24.0329 26.6856 23.7692 26.5578 23.5055 26.4158C23.1363 26.1886 22.978 25.7343 23.189 25.3935C23.3472 24.9959 23.7692 24.8256 24.1384 24.9959C24.2175 25.0243 24.2966 25.0669 24.3757 25.1095C24.4548 25.1521 24.5339 25.1947 24.613 25.2231C24.7152 25.2598 24.8174 25.3201 24.9337 25.3889L24.9338 25.3889L24.9338 25.3889C24.9976 25.4266 25.0657 25.4669 25.1405 25.5071C25.202 25.3414 25.2635 25.1806 25.3238 25.0231L25.3238 25.023C25.4701 24.6409 25.6086 24.2788 25.7206 23.9168C26.3008 21.8722 26.248 19.8844 25.4569 17.8966C25.3514 17.6695 25.2987 17.4423 25.4042 17.1583C25.5097 16.8743 25.7734 16.6472 26.0898 16.6472C26.4063 16.6472 26.67 16.8175 26.7755 17.1583C26.9864 17.7263 27.1974 18.351 27.3029 18.9189C27.3556 19.1745 27.3952 19.4443 27.4347 19.7141C27.4743 19.9838 27.5139 20.2536 27.5666 20.5092C27.5666 20.566 27.5666 20.6228 27.6193 20.6796V21.8154ZM16.1216 22.213C16.5435 23.1785 17.2292 23.6329 18.1258 23.6897C18.2313 23.6897 18.3368 23.6897 18.3895 23.7465H18.495C19.2334 23.5761 19.7081 23.1217 20.0773 22.5538C20.8684 21.3327 21.6595 20.1258 22.4506 18.919C23.2418 17.7121 24.0329 16.5052 24.8241 15.2841C24.9295 15.1705 24.9823 15.0001 24.9823 14.8297C24.9823 14.489 24.8768 14.2618 24.6131 14.0914C24.3494 13.8642 24.0329 13.921 23.7692 14.1482C22.7935 14.8865 21.8045 15.6249 20.8156 16.3632C19.8267 17.1015 18.8378 17.8398 17.8621 18.5782C17.3874 18.9189 16.9127 19.2597 16.5435 19.6573C15.9106 20.282 15.7524 21.3611 16.1216 22.213Z" fill="white"/>
</g>
<defs>
<clipPath id="clip0_648_66969">
<rect width="20.0393" height="21.5789" fill="white" transform="translate(8.1367 8.6842)"/>
</clipPath>
</defs>
</svg>
